<mxfile host="app.diagrams.net" modified="2023-12-27T21:01:10.061Z" agent="Mozilla/5.0 (Windows NT 10.0; Win64; x64) AppleWebKit/537.36 (KHTML, like Gecko) Chrome/120.0.0.0 Safari/537.36" etag="ytw5_qVrxjB8up_qlPkr" version="22.1.15" type="device">
  <diagram name="Page-1" id="2YBvvXClWsGukQMizWep">
    <mxGraphModel dx="2524" dy="746" grid="1" gridSize="10" guides="1" tooltips="1" connect="1" arrows="1" fold="1" page="1" pageScale="1" pageWidth="850" pageHeight="1100" math="0" shadow="0">
      <root>
        <mxCell id="0" />
        <mxCell id="1" parent="0" />
        <mxCell id="GMhbztJu403n18fs--4W-1" value="Web App" style="shape=umlLifeline;perimeter=lifelinePerimeter;whiteSpace=wrap;html=1;container=0;dropTarget=0;collapsible=0;recursiveResize=0;outlineConnect=0;portConstraint=eastwest;newEdgeStyle={&quot;edgeStyle&quot;:&quot;elbowEdgeStyle&quot;,&quot;elbow&quot;:&quot;vertical&quot;,&quot;curved&quot;:0,&quot;rounded&quot;:0};" parent="1" vertex="1">
          <mxGeometry x="80" y="40" width="100" height="320" as="geometry" />
        </mxCell>
        <mxCell id="GMhbztJu403n18fs--4W-2" value="" style="html=1;points=[];perimeter=orthogonalPerimeter;outlineConnect=0;targetShapes=umlLifeline;portConstraint=eastwest;newEdgeStyle={&quot;edgeStyle&quot;:&quot;elbowEdgeStyle&quot;,&quot;elbow&quot;:&quot;vertical&quot;,&quot;curved&quot;:0,&quot;rounded&quot;:0};" parent="GMhbztJu403n18fs--4W-1" vertex="1">
          <mxGeometry x="45" y="70" width="10" height="30" as="geometry" />
        </mxCell>
        <mxCell id="GMhbztJu403n18fs--4W-3" value="" style="html=1;points=[];perimeter=orthogonalPerimeter;outlineConnect=0;targetShapes=umlLifeline;portConstraint=eastwest;newEdgeStyle={&quot;edgeStyle&quot;:&quot;elbowEdgeStyle&quot;,&quot;elbow&quot;:&quot;vertical&quot;,&quot;curved&quot;:0,&quot;rounded&quot;:0};" parent="GMhbztJu403n18fs--4W-1" vertex="1">
          <mxGeometry x="45" y="130" width="10" height="170" as="geometry" />
        </mxCell>
        <mxCell id="GMhbztJu403n18fs--4W-4" value="&lt;font style=&quot;font-size: 9px;&quot;&gt;User&lt;/font&gt;" style="shape=umlActor;verticalLabelPosition=bottom;verticalAlign=top;html=1;outlineConnect=0;" parent="1" vertex="1">
          <mxGeometry x="-100" y="40" width="20" height="40" as="geometry" />
        </mxCell>
        <mxCell id="GMhbztJu403n18fs--4W-5" value="" style="endArrow=none;dashed=1;html=1;rounded=0;" parent="1" source="GMhbztJu403n18fs--4W-6" edge="1">
          <mxGeometry width="50" height="50" relative="1" as="geometry">
            <mxPoint x="-90" y="350" as="sourcePoint" />
            <mxPoint x="-90" y="100" as="targetPoint" />
          </mxGeometry>
        </mxCell>
        <mxCell id="GMhbztJu403n18fs--4W-6" value="" style="html=1;points=[];perimeter=orthogonalPerimeter;outlineConnect=0;targetShapes=umlLifeline;portConstraint=eastwest;newEdgeStyle={&quot;edgeStyle&quot;:&quot;elbowEdgeStyle&quot;,&quot;elbow&quot;:&quot;vertical&quot;,&quot;curved&quot;:0,&quot;rounded&quot;:0};" parent="1" vertex="1">
          <mxGeometry x="-95" y="110" width="10" height="240" as="geometry" />
        </mxCell>
        <mxCell id="GMhbztJu403n18fs--4W-7" value="&lt;font style=&quot;font-size: 9px;&quot;&gt;1 : click(LogInButton)&lt;/font&gt;" style="html=1;verticalAlign=bottom;endArrow=block;edgeStyle=elbowEdgeStyle;elbow=vertical;curved=0;rounded=0;" parent="1" source="GMhbztJu403n18fs--4W-6" target="GMhbztJu403n18fs--4W-2" edge="1">
          <mxGeometry relative="1" as="geometry">
            <mxPoint x="-50" y="110" as="sourcePoint" />
            <Array as="points">
              <mxPoint x="30" y="110" />
            </Array>
            <mxPoint x="115" y="110" as="targetPoint" />
          </mxGeometry>
        </mxCell>
        <mxCell id="GMhbztJu403n18fs--4W-16" value="&lt;font style=&quot;font-size: 9px;&quot;&gt;2 : showPage(logInPage)&lt;/font&gt;" style="html=1;verticalAlign=bottom;endArrow=openThin;dashed=1;endSize=8;edgeStyle=elbowEdgeStyle;elbow=vertical;curved=0;rounded=0;endFill=0;" parent="1" source="GMhbztJu403n18fs--4W-2" target="GMhbztJu403n18fs--4W-6" edge="1">
          <mxGeometry relative="1" as="geometry">
            <mxPoint x="-50" y="140" as="targetPoint" />
            <Array as="points">
              <mxPoint x="5" y="140" />
            </Array>
            <mxPoint x="80" y="140" as="sourcePoint" />
          </mxGeometry>
        </mxCell>
        <mxCell id="GMhbztJu403n18fs--4W-17" value="&lt;font style=&quot;font-size: 9px;&quot;&gt;3 : insertCredentials(email,pwd)&lt;/font&gt;" style="html=1;verticalAlign=bottom;endArrow=block;edgeStyle=elbowEdgeStyle;elbow=vertical;curved=0;rounded=0;" parent="1" source="GMhbztJu403n18fs--4W-6" target="GMhbztJu403n18fs--4W-3" edge="1">
          <mxGeometry relative="1" as="geometry">
            <mxPoint x="-80" y="190" as="sourcePoint" />
            <Array as="points">
              <mxPoint x="30" y="170" />
            </Array>
            <mxPoint x="90" y="200" as="targetPoint" />
            <mxPoint as="offset" />
          </mxGeometry>
        </mxCell>
        <mxCell id="GMhbztJu403n18fs--4W-18" value="Account Manager" style="shape=umlLifeline;perimeter=lifelinePerimeter;whiteSpace=wrap;html=1;container=1;dropTarget=0;collapsible=0;recursiveResize=0;outlineConnect=0;portConstraint=eastwest;newEdgeStyle={&quot;curved&quot;:0,&quot;rounded&quot;:0};" parent="1" vertex="1">
          <mxGeometry x="260" y="40" width="100" height="320" as="geometry" />
        </mxCell>
        <mxCell id="GMhbztJu403n18fs--4W-19" value="" style="html=1;points=[];perimeter=orthogonalPerimeter;outlineConnect=0;targetShapes=umlLifeline;portConstraint=eastwest;newEdgeStyle={&quot;edgeStyle&quot;:&quot;elbowEdgeStyle&quot;,&quot;elbow&quot;:&quot;vertical&quot;,&quot;curved&quot;:0,&quot;rounded&quot;:0};" parent="GMhbztJu403n18fs--4W-18" vertex="1">
          <mxGeometry x="45" y="140" width="10" height="150" as="geometry" />
        </mxCell>
        <mxCell id="GMhbztJu403n18fs--4W-25" value="DBMS" style="shape=umlLifeline;perimeter=lifelinePerimeter;whiteSpace=wrap;html=1;container=1;dropTarget=0;collapsible=0;recursiveResize=0;outlineConnect=0;portConstraint=eastwest;newEdgeStyle={&quot;curved&quot;:0,&quot;rounded&quot;:0};" parent="1" vertex="1">
          <mxGeometry x="380" y="40" width="100" height="320" as="geometry" />
        </mxCell>
        <mxCell id="GMhbztJu403n18fs--4W-26" value="" style="html=1;points=[];perimeter=orthogonalPerimeter;outlineConnect=0;targetShapes=umlLifeline;portConstraint=eastwest;newEdgeStyle={&quot;edgeStyle&quot;:&quot;elbowEdgeStyle&quot;,&quot;elbow&quot;:&quot;vertical&quot;,&quot;curved&quot;:0,&quot;rounded&quot;:0};" parent="GMhbztJu403n18fs--4W-25" vertex="1">
          <mxGeometry x="45" y="150" width="10" height="20" as="geometry" />
        </mxCell>
        <mxCell id="GMhbztJu403n18fs--4W-30" value="&lt;p style=&quot;line-height: 120%; font-size: 9px;&quot;&gt;&lt;b&gt;alt: &lt;/b&gt;checkIfValid Credentials()== true&lt;/p&gt;" style="shape=umlFrame;whiteSpace=wrap;html=1;pointerEvents=0;width=100;height=30;verticalAlign=middle;horizontal=1;labelPosition=center;verticalLabelPosition=middle;align=center;" parent="1" vertex="1">
          <mxGeometry x="-200" y="220" width="680" height="140" as="geometry" />
        </mxCell>
        <mxCell id="GMhbztJu403n18fs--4W-31" value="[then]" style="text;html=1;strokeColor=none;fillColor=none;align=center;verticalAlign=middle;whiteSpace=wrap;rounded=0;fontSize=10;" parent="1" vertex="1">
          <mxGeometry x="-170" y="260" width="35" height="10" as="geometry" />
        </mxCell>
        <mxCell id="GMhbztJu403n18fs--4W-43" value="[else]" style="text;html=1;strokeColor=none;fillColor=none;align=center;verticalAlign=middle;whiteSpace=wrap;rounded=0;fontSize=10;" parent="1" vertex="1">
          <mxGeometry x="-170" y="330" width="35" height="10" as="geometry" />
        </mxCell>
        <mxCell id="GMhbztJu403n18fs--4W-64" value="" style="endArrow=none;dashed=1;html=1;rounded=0;strokeWidth=2;" parent="1" edge="1">
          <mxGeometry width="50" height="50" relative="1" as="geometry">
            <mxPoint x="-200" y="310" as="sourcePoint" />
            <mxPoint x="480" y="310" as="targetPoint" />
          </mxGeometry>
        </mxCell>
        <mxCell id="GMhbztJu403n18fs--4W-69" value="&lt;font style=&quot;font-size: 9px;&quot;&gt;4 : logInUser(userData)&lt;/font&gt;" style="html=1;verticalAlign=bottom;endArrow=block;edgeStyle=elbowEdgeStyle;elbow=vertical;curved=0;rounded=0;" parent="1" source="GMhbztJu403n18fs--4W-3" target="GMhbztJu403n18fs--4W-19" edge="1">
          <mxGeometry relative="1" as="geometry">
            <mxPoint x="134" y="180" as="sourcePoint" />
            <Array as="points">
              <mxPoint x="249" y="180" />
            </Array>
            <mxPoint x="344" y="180" as="targetPoint" />
          </mxGeometry>
        </mxCell>
        <mxCell id="GMhbztJu403n18fs--4W-53" value="&lt;font style=&quot;font-size: 9px;&quot;&gt;6 : getUser(query)&lt;/font&gt;" style="html=1;verticalAlign=bottom;endArrow=block;edgeStyle=elbowEdgeStyle;elbow=vertical;curved=0;rounded=0;" parent="1" source="GMhbztJu403n18fs--4W-19" target="GMhbztJu403n18fs--4W-26" edge="1">
          <mxGeometry relative="1" as="geometry">
            <mxPoint x="310" y="190" as="sourcePoint" />
            <Array as="points">
              <mxPoint x="410" y="190" />
            </Array>
            <mxPoint x="445" y="190" as="targetPoint" />
            <mxPoint as="offset" />
          </mxGeometry>
        </mxCell>
        <mxCell id="GMhbztJu403n18fs--4W-54" value="&lt;font style=&quot;font-size: 9px;&quot;&gt;7 : userData&lt;/font&gt;" style="html=1;verticalAlign=bottom;endArrow=openThin;dashed=1;endSize=8;edgeStyle=elbowEdgeStyle;elbow=horizontal;curved=0;rounded=0;endFill=0;" parent="1" source="GMhbztJu403n18fs--4W-26" target="GMhbztJu403n18fs--4W-19" edge="1">
          <mxGeometry relative="1" as="geometry">
            <mxPoint x="320" y="250" as="targetPoint" />
            <Array as="points">
              <mxPoint x="340" y="210" />
            </Array>
            <mxPoint x="764" y="260" as="sourcePoint" />
          </mxGeometry>
        </mxCell>
        <mxCell id="GMhbztJu403n18fs--4W-74" value="" style="html=1;points=[[0,0,0,0,5],[0,1,0,0,-5],[1,0,0,0,5],[1,1,0,0,-5]];perimeter=orthogonalPerimeter;outlineConnect=0;targetShapes=umlLifeline;portConstraint=eastwest;newEdgeStyle={&quot;curved&quot;:0,&quot;rounded&quot;:0};" parent="1" vertex="1">
          <mxGeometry x="310" y="250" width="10" height="20" as="geometry" />
        </mxCell>
        <mxCell id="GMhbztJu403n18fs--4W-75" value="&lt;font style=&quot;font-size: 9px;&quot;&gt;8 : createSession(userData)&amp;nbsp;&lt;/font&gt;" style="html=1;align=left;spacingLeft=2;endArrow=block;rounded=0;edgeStyle=orthogonalEdgeStyle;curved=0;rounded=0;" parent="1" target="GMhbztJu403n18fs--4W-74" edge="1">
          <mxGeometry relative="1" as="geometry">
            <mxPoint x="315" y="230" as="sourcePoint" />
            <Array as="points">
              <mxPoint x="345" y="230" />
              <mxPoint x="345" y="250" />
            </Array>
          </mxGeometry>
        </mxCell>
        <mxCell id="GMhbztJu403n18fs--4W-76" value="&lt;font style=&quot;font-size: 9px;&quot;&gt;9 : sessionToken&lt;/font&gt;" style="html=1;verticalAlign=bottom;endArrow=openThin;dashed=1;endSize=8;edgeStyle=elbowEdgeStyle;elbow=vertical;curved=0;rounded=0;endFill=0;" parent="1" source="GMhbztJu403n18fs--4W-19" target="GMhbztJu403n18fs--4W-3" edge="1">
          <mxGeometry relative="1" as="geometry">
            <mxPoint x="135" y="290" as="targetPoint" />
            <Array as="points">
              <mxPoint x="190" y="280" />
            </Array>
            <mxPoint x="270" y="280" as="sourcePoint" />
          </mxGeometry>
        </mxCell>
        <mxCell id="GMhbztJu403n18fs--4W-77" value="&lt;font style=&quot;font-size: 9px;&quot;&gt;10 : sessionToken&lt;/font&gt;" style="html=1;verticalAlign=bottom;endArrow=openThin;dashed=1;endSize=8;edgeStyle=elbowEdgeStyle;elbow=vertical;curved=0;rounded=0;endFill=0;" parent="1" source="GMhbztJu403n18fs--4W-3" target="GMhbztJu403n18fs--4W-6" edge="1">
          <mxGeometry relative="1" as="geometry">
            <mxPoint x="-85" y="300" as="targetPoint" />
            <Array as="points">
              <mxPoint x="20" y="290" />
            </Array>
            <mxPoint x="125" y="300" as="sourcePoint" />
          </mxGeometry>
        </mxCell>
        <mxCell id="GMhbztJu403n18fs--4W-78" value="&lt;font style=&quot;font-size: 9px;&quot;&gt;11 : outcomeMessage&lt;/font&gt;" style="html=1;verticalAlign=bottom;endArrow=openThin;dashed=1;endSize=8;edgeStyle=elbowEdgeStyle;elbow=vertical;curved=0;rounded=0;endFill=0;" parent="1" source="GMhbztJu403n18fs--4W-19" target="GMhbztJu403n18fs--4W-3" edge="1">
          <mxGeometry x="-0.002" relative="1" as="geometry">
            <mxPoint x="135" y="350" as="targetPoint" />
            <Array as="points">
              <mxPoint x="200" y="330" />
            </Array>
            <mxPoint x="305" y="350" as="sourcePoint" />
            <mxPoint as="offset" />
          </mxGeometry>
        </mxCell>
        <mxCell id="GMhbztJu403n18fs--4W-79" value="&lt;font style=&quot;font-size: 9px;&quot;&gt;12 : showMessage(loginFailed)&lt;/font&gt;" style="html=1;verticalAlign=bottom;endArrow=openThin;dashed=1;endSize=8;edgeStyle=elbowEdgeStyle;elbow=vertical;curved=0;rounded=0;endFill=0;" parent="1" source="GMhbztJu403n18fs--4W-3" target="GMhbztJu403n18fs--4W-6" edge="1">
          <mxGeometry relative="1" as="geometry">
            <mxPoint x="-85" y="360" as="targetPoint" />
            <Array as="points">
              <mxPoint x="10" y="340" />
            </Array>
            <mxPoint x="130" y="350" as="sourcePoint" />
          </mxGeometry>
        </mxCell>
        <mxCell id="GMhbztJu403n18fs--4W-80" value="" style="endArrow=none;dashed=1;html=1;rounded=0;" parent="1" edge="1">
          <mxGeometry width="50" height="50" relative="1" as="geometry">
            <mxPoint x="-90.49999999999999" y="360" as="sourcePoint" />
            <mxPoint x="-90.49999999999999" y="350" as="targetPoint" />
          </mxGeometry>
        </mxCell>
      </root>
    </mxGraphModel>
  </diagram>
</mxfile>
